<svg id="Layer" xmlns="http://www.w3.org/2000/svg" xmlns:xlink="http://www.w3.org/1999/xlink" x="0px" y="0px" viewBox="0 0 1000 1000"><style>#Layer{background:black;} .tri{fill:none;stroke-width: 15;transform-origin: center center;animation: t-animation 7s linear infinite;}@keyframes t-animation{0%{transform: scale(0) rotate(0deg);stroke:#08F7FE;}25% {stroke:#FF1493;}50% {stroke:#8A2BE2;}75% {stroke:#8A2BE2;}100%{transform: scale(3) rotate(45deg);opacity: 0;stroke:#8A2BE2;}}.tri-1{animation-delay:-0ms}.tri-2{animation-delay:-500ms}.tri-3{animation-delay:-1000ms}.tri-4{animation-delay:-1500ms}.tri-5{animation-delay:-2000ms}.tri-6{animation-delay:-2500ms}.tri-7{animation-delay:-3000ms}.tri-8{animation-delay:-3500ms}.tri-9{animation-delay:-4000ms}.tri-10{animation-delay:-4500ms}.tri-11{animation-delay:-5000ms}.tri-12{animation-delay:-5500ms}.tri-13{animation-delay:-6000ms}.tri-14{animation-delay:-6500ms}.tri-15{animation-delay:-7000ms}.tri-16{animation-delay:-7500ms}.tri-17{animation-delay:-8000ms}.tri-18{animation-delay:-8500ms}.tri-19{animation-delay:-9000ms}.tri-20{animation-delay:-9500ms}</style><polygon class="tri tri-1" points="500,200 759,650 241,650"/><polygon class="tri tri-2" points="500,200 759,650 241,650"/><polygon class="tri tri-3" points="500,200 759,650 241,650"/><polygon class="tri tri-4" points="500,200 759,650 241,650"/><polygon class="tri tri-5" points="500,200 759,650 241,650"/><polygon class="tri tri-6" points="500,200 759,650 241,650"/><polygon class="tri tri-7" points="500,200 759,650 241,650"/><polygon class="tri tri-8" points="500,200 759,650 241,650"/><polygon class="tri tri-9" points="500,200 759,650 241,650"/><polygon class="tri tri-10" points="500,200 759,650 241,650"/><polygon class="tri tri-11" points="500,200 759,650 241,650"/><polygon class="tri tri-12" points="500,200 759,650 241,650"/><polygon class="tri tri-13" points="500,200 759,650 241,650"/><polygon class="tri tri-14" points="500,200 759,650 241,650"/><polygon class="tri tri-15" points="500,200 759,650 241,650"/><polygon class="tri tri-16" points="500,200 759,650 241,650"/><polygon class="tri tri-17" points="500,200 759,650 241,650"/><polygon class="tri tri-18" points="500,200 759,650 241,650"/><polygon class="tri tri-19" points="500,200 759,650 241,650"/><polygon class="tri tri-20" points="500,200 759,650 241,650"/></svg>